<?xml version="1.0" encoding="UTF-8" standalone="no"?><!DOCTYPE svg PUBLIC "-//W3C//DTD SVG 1.1//EN" "http://www.w3.org/Graphics/SVG/1.1/DTD/svg11.dtd"><svg width="100%" height="100%" viewBox="0 0 2331 925" version="1.1" xmlns="http://www.w3.org/2000/svg" xmlns:xlink="http://www.w3.org/1999/xlink" xml:space="preserve" xmlns:serif="http://www.serif.com/" style="fill-rule:evenodd;clip-rule:evenodd;stroke-linejoin:round;stroke-miterlimit:2;"><g><path d="M254.898,861.255c-41.683,0 -67.952,-10.638 -78.807,-31.914c-10.855,-21.275 -11.506,-49.716 -1.954,-85.32l125.05,-463.727l-85.972,0c-7.815,0 -11.723,-3.907 -11.723,-11.723c-0,-10.421 5.21,-15.631 15.631,-15.631l89.88,-0l44.288,-164.128c2.605,-8.684 7.381,-13.026 14.329,-13.026c10.421,-0 14.328,5.644 11.723,16.934l-42.986,160.22l87.275,-0c7.815,-0 11.723,3.908 11.723,11.723c0,10.421 -5.21,15.631 -15.631,15.631l-91.182,0l-123.748,462.424c-9.552,35.605 -9.986,59.703 -1.302,72.295c8.684,12.592 29.091,18.888 61.222,18.888c6.947,-0 10.421,3.907 10.421,11.723c-0,10.421 -6.079,15.631 -18.237,15.631Z" style="fill-rule:nonzero;"/><path d="M292.854,726.651c-1.963,-0 -3.804,-0.737 -5.522,-2.209c-1.718,-1.473 -2.332,-3.682 -1.841,-6.627l90.569,-335.031c1.473,-4.909 4.172,-7.364 8.1,-7.364c2.454,0 4.54,0.737 6.258,2.209c1.718,1.473 2.087,3.682 1.105,6.627l-7.363,27.245c25.526,-26.508 50.316,-39.762 74.369,-39.762c14.727,-0 26.508,3.681 35.344,11.045c8.836,7.363 13.254,18.899 13.254,34.607c0,11.291 -2.209,25.036 -6.627,41.235c-1.473,5.89 -4.418,8.836 -8.836,8.836c-5.891,-0 -8.1,-2.946 -6.627,-8.836c4.418,-15.709 6.627,-28.226 6.627,-37.553c0,-12.272 -2.945,-20.986 -8.836,-26.14c-5.891,-5.154 -13.99,-7.731 -24.299,-7.731c-13.254,-0 -26.631,4.295 -40.13,12.885c-13.499,8.591 -27.122,20.986 -40.866,37.185l-76.579,282.015c-1.473,4.909 -4.173,7.364 -8.1,7.364Z" style="fill-rule:nonzero;"/><path d="M535.844,730.332c-11.29,0 -20.249,-5.031 -26.876,-15.094c-6.627,-10.064 -9.941,-24.422 -9.941,-43.076c0,-24.544 3.191,-50.684 9.573,-78.419c6.381,-27.735 14.849,-54.734 25.403,-80.997c10.554,-26.262 22.458,-49.948 35.712,-71.056c13.254,-21.108 26.876,-38.044 40.867,-50.807c13.99,-12.763 27.121,-19.144 39.393,-19.144c12.273,-0 21.845,6.136 28.717,18.408c6.873,12.272 10.309,29.453 10.309,51.543c0,6.382 -0.245,12.886 -0.736,19.513c-0.491,6.627 -1.473,13.868 -2.946,21.722c-0.981,4.418 -3.436,6.627 -7.363,6.627c-5.891,-0 -8.345,-2.946 -7.363,-8.836c0.982,-6.873 1.718,-13.5 2.209,-19.881c0.491,-6.382 0.736,-12.518 0.736,-18.408c0,-17.182 -2.209,-30.681 -6.627,-40.499c-4.418,-9.818 -10.799,-14.726 -19.145,-14.726c-9.817,-0 -20.74,6.258 -32.766,18.776c-12.027,12.518 -24.054,29.208 -36.081,50.071c-12.026,20.862 -22.949,43.811 -32.766,68.847c-9.818,25.035 -17.672,50.07 -23.563,75.106c-5.891,25.035 -8.836,48.107 -8.836,69.215c-0,30.435 7.363,45.652 22.09,45.652c6.872,0 14.481,-2.699 22.826,-8.099c8.345,-5.4 16.445,-12.518 24.299,-21.354l0,-9.572c0,-23.563 2.946,-46.389 8.836,-68.479c5.891,-22.09 13.622,-40.13 23.195,-54.12c9.572,-13.991 19.512,-20.986 29.821,-20.986c11.781,0 17.672,7.363 17.672,22.09c0,12.763 -2.945,27.244 -8.836,43.444c-5.891,16.199 -13.745,32.521 -23.563,48.966c-9.817,16.444 -20.371,31.294 -31.662,44.548c1.473,13.254 5.891,19.881 13.254,19.881c5.891,-0 13.131,-4.418 21.722,-13.254c8.591,-8.836 17.427,-20.495 26.508,-34.976c9.081,-14.481 17.058,-29.821 23.931,-46.021c1.963,-4.909 4.909,-7.363 8.836,-7.363c2.454,-0 4.418,1.104 5.89,3.313c1.473,2.209 1.718,4.541 0.737,6.996c-13.745,32.398 -28.717,58.293 -44.917,77.683c-16.199,19.39 -30.68,29.085 -43.443,29.085c-12.272,-0 -20.617,-7.609 -25.035,-22.827c-8.346,8.346 -16.813,14.85 -25.404,19.513c-8.59,4.664 -16.813,6.995 -24.667,6.995Zm106.768,-182.61c-5.891,0 -12.027,6.136 -18.408,18.408c-6.382,12.273 -12.027,27.613 -16.936,46.021c-4.909,18.408 -7.854,36.694 -8.836,54.857c13.254,-17.672 24.667,-37.185 34.24,-58.539c9.572,-21.353 14.358,-39.639 14.358,-54.856c0,-3.927 -1.473,-5.891 -4.418,-5.891Z" style="fill-rule:nonzero;"/><path d="M637.458,864.345c-4.418,-0 -6.627,-2.209 -6.627,-6.627c-0,-5.891 2.945,-8.836 8.836,-8.836c19.635,-0 37.43,-7.118 53.384,-21.354c15.954,-14.236 32.03,-37.553 48.23,-69.951l18.408,-36.817l7.363,-335.767c0,-6.382 3.191,-9.573 9.573,-9.573c4.418,0 6.627,1.964 6.627,5.891l-8.1,307.787l156.839,-307.787c2.454,-3.927 5.399,-5.891 8.836,-5.891c2.454,0 4.54,0.982 6.259,2.946c1.718,1.963 1.84,4.172 0.368,6.627l-171.566,335.031l-15.463,32.398c-18.653,40.253 -37.43,68.97 -56.329,86.151c-18.899,17.181 -41.112,25.772 -66.638,25.772Z" style="fill-rule:nonzero;"/><path d="M1044.68,850.585c-40.55,-0 -66.106,-10.349 -76.666,-31.047c-10.56,-20.698 -11.194,-48.365 -1.901,-83.002l121.652,-451.127l-83.635,-0c-7.604,-0 -11.405,-3.802 -11.405,-11.405c-0,-10.138 5.069,-15.207 15.206,-15.207l87.438,0l43.085,-159.668c2.534,-8.449 7.181,-12.673 13.939,-12.673c10.138,0 13.94,5.492 11.405,16.474l-41.818,155.867l84.903,0c7.604,0 11.405,3.802 11.405,11.405c0,10.138 -5.069,15.207 -15.206,15.207l-88.705,-0l-120.385,449.859c-9.293,34.637 -9.715,58.081 -1.267,70.331c8.448,12.249 28.301,18.374 59.559,18.374c6.758,0 10.137,3.802 10.137,11.405c0,10.138 -5.913,15.207 -17.741,15.207Z" style="fill-rule:nonzero;"/><path d="M1077.78,726.651c-1.963,-0 -3.804,-0.737 -5.522,-2.209c-1.718,-1.473 -2.332,-3.682 -1.841,-6.627l90.569,-335.031c1.473,-4.909 4.173,-7.364 8.1,-7.364c2.454,0 4.54,0.737 6.258,2.209c1.719,1.473 2.087,3.682 1.105,6.627l-7.363,27.245c25.526,-26.508 50.316,-39.762 74.369,-39.762c14.727,-0 26.508,3.681 35.344,11.045c8.836,7.363 13.254,18.899 13.254,34.607c0,11.291 -2.209,25.036 -6.627,41.235c-1.473,5.89 -4.418,8.836 -8.836,8.836c-5.89,-0 -8.099,-2.946 -6.627,-8.836c4.418,-15.709 6.627,-28.226 6.627,-37.553c0,-12.272 -2.945,-20.986 -8.836,-26.14c-5.89,-5.154 -13.99,-7.731 -24.299,-7.731c-13.254,-0 -26.63,4.295 -40.13,12.885c-13.499,8.591 -27.121,20.986 -40.866,37.185l-76.579,282.015c-1.473,4.909 -4.172,7.364 -8.1,7.364Z" style="fill-rule:nonzero;"/><path d="M1320.77,730.332c-11.29,0 -20.249,-5.031 -26.876,-15.094c-6.627,-10.064 -9.941,-24.422 -9.941,-43.076c0,-24.544 3.191,-50.684 9.573,-78.419c6.381,-27.735 14.849,-54.734 25.403,-80.997c10.554,-26.262 22.458,-49.948 35.712,-71.056c13.254,-21.108 26.877,-38.044 40.867,-50.807c13.99,-12.763 27.121,-19.144 39.394,-19.144c12.272,-0 21.844,6.136 28.717,18.408c6.872,12.272 10.308,29.453 10.308,51.543c0,6.382 -0.245,12.886 -0.736,19.513c-0.491,6.627 -1.473,13.868 -2.945,21.722c-0.982,4.418 -3.437,6.627 -7.364,6.627c-5.89,-0 -8.345,-2.946 -7.363,-8.836c0.982,-6.873 1.718,-13.5 2.209,-19.881c0.491,-6.382 0.736,-12.518 0.736,-18.408c0,-17.182 -2.209,-30.681 -6.627,-40.499c-4.418,-9.818 -10.799,-14.726 -19.144,-14.726c-9.818,-0 -20.74,6.258 -32.767,18.776c-12.027,12.518 -24.054,29.208 -36.08,50.071c-12.027,20.862 -22.949,43.811 -32.767,68.847c-9.818,25.035 -17.672,50.07 -23.563,75.106c-5.891,25.035 -8.836,48.107 -8.836,69.215c0,30.435 7.363,45.652 22.09,45.652c6.873,0 14.481,-2.699 22.826,-8.099c8.345,-5.4 16.445,-12.518 24.299,-21.354l0,-9.572c0,-23.563 2.946,-46.389 8.836,-68.479c5.891,-22.09 13.622,-40.13 23.195,-54.12c9.572,-13.991 19.513,-20.986 29.821,-20.986c11.782,0 17.672,7.363 17.672,22.09c0,12.763 -2.945,27.244 -8.836,43.444c-5.89,16.199 -13.745,32.521 -23.562,48.966c-9.818,16.444 -20.372,31.294 -31.663,44.548c1.473,13.254 5.891,19.881 13.254,19.881c5.891,-0 13.132,-4.418 21.722,-13.254c8.591,-8.836 17.427,-20.495 26.508,-34.976c9.082,-14.481 17.058,-29.821 23.931,-46.021c1.963,-4.909 4.909,-7.363 8.836,-7.363c2.454,-0 4.418,1.104 5.891,3.313c1.472,2.209 1.718,4.541 0.736,6.996c-13.745,32.398 -28.717,58.293 -44.916,77.683c-16.2,19.39 -30.681,29.085 -43.444,29.085c-12.272,-0 -20.617,-7.609 -25.035,-22.827c-8.345,8.346 -16.813,14.85 -25.404,19.513c-8.59,4.664 -16.813,6.995 -24.667,6.995Zm106.768,-182.61c-5.89,0 -12.026,6.136 -18.408,18.408c-6.382,12.273 -12.027,27.613 -16.936,46.021c-4.909,18.408 -7.854,36.694 -8.836,54.857c13.254,-17.672 24.667,-37.185 34.24,-58.539c9.572,-21.353 14.358,-39.639 14.358,-54.856c0,-3.927 -1.472,-5.891 -4.418,-5.891Z" style="fill-rule:nonzero;"/><path d="M1625.62,335.658c-1.964,0 -3.805,-0.736 -5.523,-2.209c-1.718,-1.472 -2.332,-3.681 -1.841,-6.627l19.881,-71.424c1.473,-4.909 4.173,-7.363 8.1,-7.363c2.454,-0 4.541,0.736 6.259,2.209c1.718,1.472 2.086,3.681 1.104,6.627l-19.881,71.424c-1.472,4.909 -4.172,7.363 -8.099,7.363Zm-105.296,390.993c-1.963,-0 -3.804,-0.737 -5.522,-2.209c-1.718,-1.473 -2.332,-3.682 -1.841,-6.627l90.569,-335.031c1.472,-4.909 4.172,-7.364 8.099,-7.364c2.455,0 4.541,0.737 6.259,2.209c1.718,1.473 2.086,3.682 1.105,6.627l-90.569,335.031c-1.473,4.909 -4.173,7.364 -8.1,7.364Z" style="fill-rule:nonzero;"/><path d="M1625.62,726.651c-1.964,-0 -3.805,-0.737 -5.523,-2.209c-1.718,-1.473 -2.332,-3.682 -1.841,-6.627l136.958,-508.806c1.473,-4.909 4.173,-7.363 8.1,-7.363c2.454,-0 4.54,0.736 6.259,2.209c1.718,1.473 2.086,3.682 1.104,6.627l-136.958,508.805c-1.472,4.909 -4.172,7.364 -8.099,7.364Z" style="fill-rule:nonzero;"/></g><path d="M1842.12,547.671c2.08,-4.576 3.535,-9.048 4.367,-13.415c0.832,-4.368 1.248,-9.048 1.248,-14.04c0,-15.392 -4.159,-30.263 -12.479,-44.615c-8.32,-14.352 -12.48,-29.639 -12.48,-45.863c-0,-3.328 0.312,-7.072 0.936,-11.232c0.624,-4.16 1.976,-8.528 4.056,-13.104l15.6,0c-1.664,4.16 -2.912,8.32 -3.744,12.48c-0.832,4.16 -1.248,8.112 -1.248,11.856c-0,14.144 4.16,28.599 12.479,43.367c8.32,14.768 12.48,30.471 12.48,47.111c0,4.992 -0.52,9.88 -1.56,14.664c-1.04,4.783 -2.392,9.047 -4.056,12.791l-15.599,0Zm162.236,0c2.08,-4.576 3.536,-9.048 4.368,-13.415c0.832,-4.368 1.248,-9.048 1.248,-14.04c-0,-15.392 -4.16,-30.263 -12.48,-44.615c-8.32,-14.352 -12.48,-29.639 -12.48,-45.863c0,-3.328 0.312,-7.072 0.936,-11.232c0.624,-4.16 1.976,-8.528 4.056,-13.104l15.6,0c-1.664,4.16 -2.912,8.32 -3.744,12.48c-0.832,4.16 -1.248,8.112 -1.248,11.856c0,14.144 4.16,28.599 12.48,43.367c8.32,14.768 12.48,30.471 12.48,47.111c-0,4.992 -0.52,9.88 -1.56,14.664c-1.04,4.783 -2.392,9.047 -4.056,12.791l-15.6,0Zm-81.118,0c2.08,-4.576 3.536,-9.048 4.368,-13.415c0.832,-4.368 1.248,-9.048 1.248,-14.04c-0,-15.392 -4.16,-30.263 -12.48,-44.615c-8.32,-14.352 -12.48,-29.639 -12.48,-45.863c0,-3.328 0.312,-7.072 0.936,-11.232c0.624,-4.16 1.976,-8.528 4.056,-13.104l15.6,0c-1.664,4.16 -2.912,8.32 -3.744,12.48c-0.832,4.16 -1.248,8.112 -1.248,11.856c-0,14.144 4.16,28.599 12.48,43.367c8.319,14.768 12.479,30.471 12.479,47.111c0,4.992 -0.52,9.88 -1.56,14.664c-1.04,4.783 -2.392,9.047 -4.056,12.791l-15.599,0Zm19.343,205.916c-37.439,-0 -70.614,-12.896 -99.525,-38.687c-28.912,-25.792 -46.487,-56.991 -52.727,-93.598c-0,-2.496 0.416,-4.472 1.248,-5.928c0.832,-1.456 2.704,-2.184 5.616,-2.184l282.665,-0l29.328,-276.426c1.664,-13.728 7.8,-25.48 18.407,-35.255c10.608,-9.776 23.192,-14.664 37.751,-14.664c15.808,0 29.224,5.512 40.248,16.536c11.023,11.023 16.535,24.439 16.535,40.247l0,6.24c0,2.496 -0.416,6.239 -1.248,11.231l-13.727,-2.496c0.416,-2.496 0.728,-5.199 0.936,-8.111c0.208,-2.912 0.311,-5.2 0.311,-6.864c0,-12.064 -4.159,-22.256 -12.479,-30.576c-8.32,-8.319 -18.512,-12.479 -30.576,-12.479c-11.647,-0 -21.527,3.744 -29.639,11.231c-8.112,7.488 -12.584,16.64 -13.416,27.456l-28.703,273.306c-4.16,39.935 -20.488,73.422 -48.983,100.462c-28.495,27.039 -62.503,40.559 -102.022,40.559Zm0,-13.728c32.864,0 61.255,-10.296 85.174,-30.887c23.92,-20.592 41.288,-47.943 52.103,-82.054l-276.426,-0c10.816,34.111 28.496,61.462 53.039,82.054c24.544,20.591 53.247,30.887 86.11,30.887Z" style="fill:#fe7252;fill-rule:nonzero;"/><rect x="0" y="0" width="2330.13" height="924.828" style="fill:none;"/></svg>